<?xml version="1.0" encoding="utf-8"?>
<!-- Generator: Adobe Illustrator 21.0.0, SVG Export Plug-In . SVG Version: 6.00 Build 0)  -->
<svg version="1.1" id="Layer_1" xmlns="http://www.w3.org/2000/svg" xmlns:xlink="http://www.w3.org/1999/xlink" x="0px" y="0px"
	 viewBox="0 0 63 56" style="enable-background:new 0 0 63 56;" xml:space="preserve">
<style type="text/css">
	.st0{fill-opacity:0.2;}
	.st1{fill:#E3E1DC;}
</style>
<g transform="matrix( 1, 0, 0, 1, 0,0) ">
	<g>
		<g id="Layer0_0_FILL">
			<path class="st0" d="M4.1,0h-4c7.7,3.3,14.8,13.9,21.2,31.9c6.2,15.5,20,23.5,41.8,24.1v-2.3c-20.8-1-34.2-9-40-24.1
				C17.9,15.5,12.9,6.3,8,2.1C6.6,1.1,5.4,0.3,4.1,0z"/>
			<path class="st1" d="M4.1,0.1c1.2,0.3,2.6,1.1,3.8,2.1C12.9,6.3,18,15.5,23,29.7c6,15,19.4,23.1,40.2,24.1V0H3.9
				C4,0.1,4.1,0.1,4.1,0.1z"/>
		</g>
	</g>
</g>
</svg>
