<svg xmlns="http://www.w3.org/2000/svg" width="11" height="11" viewBox="0 0 11 11">
  <defs>
    <style>
      .cls-1 {
        fill-rule: evenodd;
        opacity: 0.93;
      }
    </style>
  </defs>
  <path class="cls-1" d="M881.976,82.768c-0.028.046-.057,0.091-0.086,0.137l3.982,2.011q0.035-.077.06-0.145a0.4,0.4,0,0,0-.206-0.608l-3.142-1.591a0.4,0.4,0,0,0-.608.2m-5.2-6.486a2.807,2.807,0,0,0-.711.6,4.078,4.078,0,0,0-.531.8q-0.222.419-.351,0.727c-0.039.12-.074,0.24-0.1,0.359a4.965,4.965,0,0,0,.12,2.327c0.079,0.228.165,0.453,0.256,0.676a9.226,9.226,0,0,0,1.807,2.832l0.043,0.043a0.055,0.055,0,0,0,.026.026c0,0.011.011,0.023,0.017,0.034a0.134,0.134,0,0,1,.051.034,9.224,9.224,0,0,0,2.834,1.805q0.334,0.137.676,0.257a5.2,5.2,0,0,0,2.321.128,3.147,3.147,0,0,0,.376-0.111q0.3-.128.728-0.351a4.131,4.131,0,0,0,.788-0.531,2.586,2.586,0,0,0,.6-0.719l-3.981-2a1.7,1.7,0,0,0,.026,1.549q-0.934.65-2.526-.334a8.473,8.473,0,0,1-1.661-1.66q-1-1.6-.351-2.533a1.74,1.74,0,0,0,1.567.026l-2.021-3.979m0.479-.214a1.159,1.159,0,0,0-.145.06l2.012,3.979c0.046-.028.091-0.054,0.137-0.077a0.412,0.412,0,0,0,.205-0.616l-1.6-3.14A0.4,0.4,0,0,0,877.258,76.068Z" transform="translate(-875 -76)"/>
</svg>
