<svg xmlns="http://www.w3.org/2000/svg" viewBox="0 0 587.31 122.32"><g data-name="Layer 2"><g fill="#00283c" data-name="Layer 1"><path d="M30.43 77.27v-30.6h3.85l22.05 22.15h.1V46.67h4.92v30.6h-3.53L35.44 54.8h-.1v22.47zM66.04 77.24V46.58h15.53a21.45 21.45 0 0 1 5.35.6c4.33 1.12 6.51 3.68 6.51 7.63a6.6 6.6 0 0 1-3.53 6.15v.1a7.49 7.49 0 0 1 2.1.74 6.76 6.76 0 0 1 3.67 6.23c0 4.05-1.96 6.75-5.86 8.19a20.22 20.22 0 0 1-7.03 1.02zm4.93-17.77h10.65a11.74 11.74 0 0 0 4.04-.56 3.8 3.8 0 0 0 2.61-3.77 3.61 3.61 0 0 0-2.98-3.77 16.1 16.1 0 0 0-3.72-.37h-10.6zm0 13.35H82.4a15.34 15.34 0 0 0 5.16-.7 4.06 4.06 0 0 0 2.93-4.04 3.63 3.63 0 0 0-2.74-3.68 14.64 14.64 0 0 0-4.19-.51h-12.6z"/><path d="M61.16 104.63a43.47 43.47 0 1 1 43.47-43.47 43.52 43.52 0 0 1-43.47 43.47zm0-84.9a41.43 41.43 0 1 0 41.43 41.43 41.48 41.48 0 0 0-41.43-41.43zM29.31 19.33l-1.64-.85-.02.01.49 1.75 1.17-.91zM14.56 35.75a1.73 1.73 0 0 0 1.35.25 2.21 2.21 0 0 0 1.42-2.38 1.97 1.97 0 0 0-2.2-1.3 2.22 2.22 0 0 0-1.42 2.37 1.74 1.74 0 0 0 .85 1.06zM35.07 14.45a.6.6 0 0 0 .06-.72.55.55 0 0 0-.6-.31 1.97 1.97 0 0 0-.65.27l-.77.44.68 1.18.68-.39a2.05 2.05 0 0 0 .6-.47zM8.77 46.89a.41.41 0 0 0-.47.14 1.47 1.47 0 0 0-.24.57l-.27 1.04 1.03.26.27-1.04a1.45 1.45 0 0 0 .06-.52.5.5 0 0 0-.38-.45zM11.38 39.86a.55.55 0 0 0-.66.12 2.02 2.02 0 0 0-.35.62l-.34.81 1.27.52.3-.72a2.04 2.04 0 0 0 .18-.75.6.6 0 0 0-.4-.6zM11.14 47.14a.46.46 0 0 0-.5.14 1.27 1.27 0 0 0-.23.53l-.37 1.4 1.08.28.28-1.1a2.84 2.84 0 0 0 .12-.75.48.48 0 0 0-.38-.5zM8.63 71.73a.6.6 0 0 0-.67-.28.56.56 0 0 0-.48.47 2 2 0 0 0 .06.71l.18.86 1.34-.28-.16-.76a2.04 2.04 0 0 0-.27-.72zM41.57 13.71a5.1 5.1 0 0 0 1.2-.62 1.7 1.7 0 0 0 .62-2.04 1.49 1.49 0 0 0-1.66-.99 5.58 5.58 0 0 0-1.24.38l-.71.29 1.25 3.2zM58.32 7.84a2.05 2.05 0 0 0 .76-.15.6.6 0 0 0 .38-.61.55.55 0 0 0-.4-.55 1.98 1.98 0 0 0-.7-.06l-.88.05.07 1.36zM102.8 30.43a1.97 1.97 0 0 0 2.02-1.58 2.21 2.21 0 0 0-1.7-2.19 1.97 1.97 0 0 0-2.02 1.59 2.21 2.21 0 0 0 1.7 2.17zM93.19 17.37l-.01-.01-1.56.94 1.2.88.37-1.81zM86.96 14.29a.6.6 0 0 0 .65-.33.55.55 0 0 0-.06-.68 1.97 1.97 0 0 0-.58-.41l-.77-.42-.65 1.2.69.37a2.03 2.03 0 0 0 .72.27zM108.07 35.37a.6.6 0 0 0 .72.07.55.55 0 0 0 .31-.6 1.98 1.98 0 0 0-.27-.66l-.43-.77-1.19.68.39.67a2.05 2.05 0 0 0 .47.61zM51.27 8.9a2.77 2.77 0 0 0 .72-.23.73.73 0 0 0 .46-.83.7.7 0 0 0-.7-.58 2.46 2.46 0 0 0-.62.06l-.78.15.28 1.54zM12.11 81.58a1.74 1.74 0 0 0 1.03-.9 2.21 2.21 0 0 0-.97-2.6 1.74 1.74 0 0 0-1.37.02 1.73 1.73 0 0 0-1.03.9 2.21 2.21 0 0 0 .97 2.59 1.74 1.74 0 0 0 1.37-.01zM72.82 9.17a.73.73 0 0 0 .74-.6.7.7 0 0 0-.42-.8 2.45 2.45 0 0 0-.6-.18l-.78-.16-.32 1.53.63.14a2.8 2.8 0 0 0 .75.07z"/><path d="M61.16 0a61.16 61.16 0 1 0 61.16 61.16A61.23 61.23 0 0 0 61.16 0zm55.72 61.06l-1.22-.34a4.3 4.3 0 0 0 .3-1.89 2.07 2.07 0 0 0-.58-1.42 1.67 1.67 0 0 0-1.32-.46 1.7 1.7 0 0 0-1.64 2.03 4.4 4.4 0 0 0 .52 1.89l-1.2.53a6.32 6.32 0 0 1-.64-2.47 3.5 3.5 0 0 1 .7-2.52 2.86 2.86 0 0 1 2.13-1.02 2.93 2.93 0 0 1 2.32.84 3.54 3.54 0 0 1 1.02 2.44 5.7 5.7 0 0 1-.4 2.39zm-.6-10.64a6.18 6.18 0 0 1 .11 1.46 4.14 4.14 0 0 1-.2 1.29l-1.2-.29a3.9 3.9 0 0 0 .13-1.05 5.45 5.45 0 0 0-.08-1.11c-.14-.68-.37-1-.73-.92-1.06.2.67 3.7-1.66 4.16a1.6 1.6 0 0 1-1.56-.5 3.78 3.78 0 0 1-.89-1.96 4.8 4.8 0 0 1 .15-2.76l1.23.37a3.89 3.89 0 0 0-.12 2.13q.25 1.3.85 1.19c.15-.03.24-.18.27-.45a4 4 0 0 0 0-.92 5.55 5.55 0 0 1 0-1.13 2.27 2.27 0 0 1 .3-1 1.45 1.45 0 0 1 1-.65 1.65 1.65 0 0 1 1.54.43 3.15 3.15 0 0 1 .87 1.71zm-3.53-11.33l-1.71 2.49v.02l2.93.58.63 1.58-4.49-1-2.07.81-.57-1.42 2.08-.82 2.56-3.87zm-2.77-5.54a4.28 4.28 0 0 1 .54 1.39 1.66 1.66 0 0 1-.9 1.83 1.68 1.68 0 0 1-2.26-.54h-.02a1.63 1.63 0 0 1-.24.72 2.4 2.4 0 0 0-.27.7.73.73 0 0 0 .09.46 1.3 1.3 0 0 0 .31.36l-.87.81a2.8 2.8 0 0 1-.61-.77 2.06 2.06 0 0 1-.29-1.04 3.26 3.26 0 0 1 .53-1.52c.24-.38.43-.77.32-.97l-.16-.29-1.87 1.06-.76-1.33 5.25-2.99zm-6.77-8.34a4.09 4.09 0 0 1 3.05 3.9 3.14 3.14 0 0 1-3.55 2.78 4.08 4.08 0 0 1-3.05-3.9 3.14 3.14 0 0 1 3.55-2.78zm-6.09-5.43l.9-.94 4.1 3.95-.9.94-1.5-1.45-3.28 3.42-1.1-1.06 3.29-3.42zm-2.3-3.47l-1.2 6.65-1.38-1.01.29-1.38-2.1-1.55-1.18.72-1.34-.98 5.82-3.26zm-9.36-5.73l2.14 1.15a4.31 4.31 0 0 1 1.2.89 1.66 1.66 0 0 1 .2 2.03 1.68 1.68 0 0 1-2.2.74v.02a1.63 1.63 0 0 1 .17.73 2.38 2.38 0 0 0 .14.74.74.74 0 0 0 .33.34 1.3 1.3 0 0 0 .45.14l-.3 1.15a2.76 2.76 0 0 1-.93-.32 2.06 2.06 0 0 1-.79-.73 3.25 3.25 0 0 1-.36-1.57c0-.46-.05-.89-.25-1l-.29-.16-1.01 1.9-1.35-.73zM80.9 8.66l.72 6.72-1.61-.6-.12-1.4-2.45-.9-.93 1.03-1.56-.57 4.67-4.76zM70.53 5.83l2.32.5a4.41 4.41 0 0 1 1.14.38 1.89 1.89 0 0 1 1.11 2.17 2 2 0 0 1-2.11 1.6 5.14 5.14 0 0 1-1.13-.13l-.69-.15-.4 1.87-1.5-.32zm-7.07-.73l4.68.38-.1 1.3-3.16-.26-.08 1.04 2.87.23-.1 1.3-2.87-.23-.1 1.09 3.2.26-.1 1.3-4.73-.38zm-5.15.07a4.27 4.27 0 0 1 1.48.14 1.66 1.66 0 0 1 1.23 1.63 1.68 1.68 0 0 1-1.5 1.78v.01a1.65 1.65 0 0 1 .53.54 2.42 2.42 0 0 0 .5.56.74.74 0 0 0 .45.13 1.28 1.28 0 0 0 .46-.12l.34 1.14a2.78 2.78 0 0 1-.97.2 2.06 2.06 0 0 1-1.05-.21 3.25 3.25 0 0 1-1.12-1.15c-.24-.4-.5-.74-.73-.73l-.33.02.1 2.14-1.52.08-.3-6.04zm-7.38.86a4.37 4.37 0 0 1 1.2-.08A1.89 1.89 0 0 1 54 7.55a2 2 0 0 1-1.34 2.27 5.13 5.13 0 0 1-1.09.3l-.7.13.35 1.88-1.5.27-1.1-5.94zm-10.7 3.11a6.48 6.48 0 0 1 1.4-.4 3.26 3.26 0 0 1 1.94.27 2.59 2.59 0 0 1 1.28 1.46 2.73 2.73 0 0 1 .05 2.03 3.48 3.48 0 0 1-1 1.39 6.8 6.8 0 0 1-1.94 1.07l-1.88.74-2.21-5.62zm-6.98 3.4a4.3 4.3 0 0 1 1.38-.54 1.66 1.66 0 0 1 1.83.9 1.68 1.68 0 0 1-.53 2.26l.01.02a1.62 1.62 0 0 1 .71.24 2.42 2.42 0 0 0 .7.27.73.73 0 0 0 .47-.1 1.26 1.26 0 0 0 .36-.32l.81.87a2.77 2.77 0 0 1-.76.62 2.06 2.06 0 0 1-1.04.29 3.26 3.26 0 0 1-1.53-.52c-.38-.25-.77-.44-.97-.32l-.29.16 1.07 1.86-1.33.77-3-5.24zm-6.16 4.07l6.08 2.94-1.35 1.06-1.25-.64-2.05 1.6.37 1.33-1.31 1.03-1.57-6.47zM16.86 26.63l3.8 1.45h.02l-1.93-3.58.89-1 3.86 1.4.01-.02-1.97-3.52 1.12-1.26 2.97 5.79-.85.96-3.99-1.45-.01.01 2 3.68-.87.98-6.19-2.17zm-4 5.95a3.6 3.6 0 0 1 1.98-1.7 2.86 2.86 0 0 1 2.43.33 2.86 2.86 0 0 1 1.45 1.97 3.6 3.6 0 0 1-.55 2.55 3.6 3.6 0 0 1-1.98 1.7 2.86 2.86 0 0 1-2.43-.33 2.86 2.86 0 0 1-1.45-1.97 3.6 3.6 0 0 1 .55-2.55zm-3.7 7.51a4.3 4.3 0 0 1 .76-1.29 1.66 1.66 0 0 1 2-.41 1.68 1.68 0 0 1 .97 2.1l.02.01a1.64 1.64 0 0 1 .7-.25 2.4 2.4 0 0 0 .73-.22.73.73 0 0 0 .3-.36 1.26 1.26 0 0 0 .09-.46l1.17.18a2.77 2.77 0 0 1-.22.96 2.06 2.06 0 0 1-.64.86 3.25 3.25 0 0 1-1.52.53c-.46.04-.88.14-.97.35l-.12.3 1.98.81-.58 1.42-5.58-2.28zM6.8 47.26a4.03 4.03 0 0 1 .5-1.22 1.44 1.44 0 0 1 1.65-.73 1.2 1.2 0 0 1 .95 1.19h.02a1.75 1.75 0 0 1 .4-.59 1.28 1.28 0 0 1 1.27-.28 1.56 1.56 0 0 1 1.24 1.34 3.81 3.81 0 0 1-.12 1.56l-.7 2.73-5.85-1.5zM5.04 59.53l2.35.13.17-2.96-2.35-.13.09-1.54 6.03.34-.08 1.54-2.4-.14-.16 2.96 2.39.14-.09 1.53-6.03-.34zM5 62.98l1.3-.11.17 2.08 4.73-.4.12 1.53-4.72.4.16 2.06-1.3.11zm1.27 9.9a4.3 4.3 0 0 1-.1-1.48 1.66 1.66 0 0 1 1.42-1.48 1.68 1.68 0 0 1 2 1.2 1.63 1.63 0 0 1 .45-.6 2.41 2.41 0 0 0 .48-.58.73.73 0 0 0 .05-.47 1.25 1.25 0 0 0-.19-.44l1.08-.51a2.74 2.74 0 0 1 .35.92 2.05 2.05 0 0 1-.04 1.08 3.25 3.25 0 0 1-.97 1.29c-.35.29-.65.6-.6.83l.07.32 2.1-.44.32 1.5-5.92 1.24zm2.3 8.04a3.6 3.6 0 0 1-.08-2.6 2.86 2.86 0 0 1 1.77-1.7 2.86 2.86 0 0 1 2.45.1 3.6 3.6 0 0 1 1.65 2.03 3.6 3.6 0 0 1 .09 2.6 2.86 2.86 0 0 1-1.78 1.7 2.87 2.87 0 0 1-2.44-.1 3.6 3.6 0 0 1-1.65-2.03zM14.15 92l-.66-1.15 1.41-4.9v-.02l-3.19 1.84-.77-1.32 5.23-3.02.64 1.1-1.47 5 .01.01 3.26-1.88.77 1.33zm27.81 18.47l-.52 1.19-2.63-1.16-.44 1 2.94 1.3-.53 1.19-4.34-1.91 2.44-5.53 4.29 1.9-.53 1.19-2.89-1.28-.42.96zm6.48 1.4a3.97 3.97 0 0 0-.87-.6 5.37 5.37 0 0 0-1.02-.44c-.67-.2-1.05-.13-1.15.22-.3 1.03 3.6 1.11 2.92 3.39a1.6 1.6 0 0 1-1.17 1.14 3.78 3.78 0 0 1-2.13-.1 4.8 4.8 0 0 1-2.37-1.41l.89-.91a3.89 3.89 0 0 0 1.83 1.08q1.27.38 1.44-.2.06-.22-.27-.45a3.95 3.95 0 0 0-.81-.42 5.47 5.47 0 0 1-1-.52 2.25 2.25 0 0 1-.75-.73 1.45 1.45 0 0 1-.12-1.19 1.65 1.65 0 0 1 1.1-1.17 3.14 3.14 0 0 1 1.9.03 6.18 6.18 0 0 1 1.34.58 4.13 4.13 0 0 1 1.05.78zm7.11.9l-2.05-.33-.76 4.67-1.51-.25.76-4.67-2.05-.33.21-1.28 5.61.91zm1.06 4.88a.82.82 0 1 1 .88-.76.8.8 0 0 1-.88.76zm3 .12l-.03-1.18 2-.04-.05-3.24-2 .79-.47-1.11 3.3-1.35.54.64.07 4.25 1.91-.03.02 1.18zm9.34-.47a4.78 4.78 0 0 1-2.65-.26l.37-1.17a4.14 4.14 0 0 0 2.04.17q1.98-.3 1.95-1.68a5.05 5.05 0 0 1-2.04.72c-1.67.24-2.72-.28-2.9-1.5a1.73 1.73 0 0 1 .53-1.57 3.42 3.42 0 0 1 1.92-.83 3.6 3.6 0 0 1 2.61.47 2.91 2.91 0 0 1 1.25 2.1c.32 2.22-1.16 3.28-3.09 3.55zm9.76-2.8a3.95 3.95 0 0 1-1.94 1.14 5.29 5.29 0 0 1-3.14-.03l.32-1.22a4.5 4.5 0 0 0 2.45.02c1.01-.3 1.46-.75 1.32-1.23-.15-.51-.75-.61-1.8-.3a7.06 7.06 0 0 0-1.69.7l-.74-.43-.56-2.77 4.9-1.42.33 1.13-3.76 1.09.18.9a6.35 6.35 0 0 1 1.13-.43c1.73-.5 3.01-.14 3.38 1.13a1.76 1.76 0 0 1-.39 1.73zm5.23-2.1l.24.53-1.25.55-.28-.62a4.79 4.79 0 0 1 .14-4.5v-.03a2 2 0 0 1-.24.12 6.98 6.98 0 0 1-.96.3 6.04 6.04 0 0 0-.95.3 1.15 1.15 0 0 0-.27.15l.4.88-1.23.54-.79-1.78a3.7 3.7 0 0 1 1.3-.93 10.04 10.04 0 0 1 1.37-.45 10 10 0 0 0 1.35-.43 3.47 3.47 0 0 0 1.09-.82l.92.67a8.26 8.26 0 0 0-1.24 3 4.57 4.57 0 0 0 .4 2.52zm-22.77-5.36a45.88 45.88 0 1 1 45.88-45.88 45.93 45.93 0 0 1-45.88 45.88zm48.01-16.76l-4.04-2.49-1.58 2.57-1.1-.68 2.38-3.88 5.15 3.17zm3.43-6.5a3.59 3.59 0 0 1-1.76 1.94 3.14 3.14 0 0 1-4.13-1.82 4.09 4.09 0 0 1 2-4.53 3.14 3.14 0 0 1 4.12 1.81 3.6 3.6 0 0 1-.24 2.61zm2.98-8.62a3.59 3.59 0 0 1-1.42 2.2 3.15 3.15 0 0 1-4.37-1.12 4.09 4.09 0 0 1 1.23-4.8 3.14 3.14 0 0 1 4.36 1.11 3.6 3.6 0 0 1 .2 2.62zm1.34-7.4l-.14 1.53-6.01-.55.13-1.52 2.39.22.26-2.96-2.38-.22.14-1.52 6.01.54-.13 1.53-2.34-.21-.27 2.95z"/><path d="M79.63 10.13h-.01l-1.24 1.34 1.4.51-.15-1.85zM110.52 80.83a1.74 1.74 0 0 0-1.37-.08 2.21 2.21 0 0 0-1.12 2.54 1.96 1.96 0 0 0 2.35 1.03 2.21 2.21 0 0 0 1.12-2.53 1.75 1.75 0 0 0-.98-.96zM68.32 112.44c-.93.13-1.25.5-1.19.9.07.45.54.61 1.42.48a5.03 5.03 0 0 0 1.84-.62 1.87 1.87 0 0 0-2.07-.76zM113.04 72.59a1.74 1.74 0 0 0-1.36.14 2.22 2.22 0 0 0-.68 2.68 1.97 1.97 0 0 0 2.49.64 2.21 2.21 0 0 0 .68-2.68 1.74 1.74 0 0 0-1.13-.78zM141.91 109.23l6.07-12.29h.98l6.26 12.29h-1.54l-1.95-3.9h-6.4l-1.9 3.9zm4-5.1h5.2l-2.63-5.23h-.04zM161.82 109.23V97h1.1l9.68 9.83h.04V97h1.37v12.23h-.94l-9.84-9.98h-.03v9.98zM178.93 98.65a7.75 7.75 0 0 1 9.8 0 5.93 5.93 0 0 1 1.87 4.53 5.86 5.86 0 0 1-1.87 4.54 7.95 7.95 0 0 1-9.8 0 5.86 5.86 0 0 1-1.88-4.54 5.93 5.93 0 0 1 1.88-4.53zm8.77 8.15a4.8 4.8 0 0 0 1.45-3.62 4.87 4.87 0 0 0-1.45-3.64 5.25 5.25 0 0 0-3.88-1.4 5.32 5.32 0 0 0-3.9 1.4 4.92 4.92 0 0 0-1.43 3.64 4.85 4.85 0 0 0 1.43 3.62 6.12 6.12 0 0 0 7.78 0zM193.64 109.23V97h3.67a8.8 8.8 0 0 1 2.56.3 3.15 3.15 0 0 1 2.5 3.15c0 1.86-1.35 3.1-3.75 3.42v.04a2.12 2.12 0 0 1 .84.9l1 1.6a5.11 5.11 0 0 0 1.1 1.27 1.92 1.92 0 0 0 1.18.4 2.92 2.92 0 0 0 .7-.09l.28 1.17a3.2 3.2 0 0 1-1.1.17 3.13 3.13 0 0 1-1.86-.61 5.44 5.44 0 0 1-1.25-1.28 14.84 14.84 0 0 1-1-1.54c-.5-.95-1.18-1.79-1.83-1.79H195v5.12zm1.37-6.35h1.95a8.3 8.3 0 0 0 2.1-.2 2.24 2.24 0 0 0 1.87-2.24 2.02 2.02 0 0 0-1.43-1.94 6.46 6.46 0 0 0-2.19-.28h-2.3zM205.88 109.23V97h4.38a11.2 11.2 0 0 1 3.73.52 5.34 5.34 0 0 1 3.9 5.4c0 3.04-1.71 5.08-4.73 5.9a13.12 13.12 0 0 1-3.55.4zm1.37-1.23h2.3a12.16 12.16 0 0 0 3.23-.35 4.53 4.53 0 0 0 3.66-4.75 4.08 4.08 0 0 0-2.92-4.2 10.05 10.05 0 0 0-3.45-.48h-2.82zM223.79 109.23l6.06-12.29h.99l6.25 12.29h-1.54l-1.95-3.9h-6.4l-1.89 3.9zm3.99-5.1h5.2l-2.63-5.23h-.03zM239.33 109.23V97h1.1l9.68 9.83h.03V97h1.38v12.23h-.95l-9.83-9.98h-.04v9.98zM256.54 98.69a7.76 7.76 0 0 1 5.36-1.78 12.56 12.56 0 0 1 4.89.96l-.43 1.17a10.65 10.65 0 0 0-4.4-.9 6.34 6.34 0 0 0-4.34 1.4 4.63 4.63 0 0 0-1.62 3.66c0 3.13 2.06 4.99 6.05 4.99a9.77 9.77 0 0 0 3.64-.63v-3.53h-4.55v-1.22h5.92v5.56a9.2 9.2 0 0 1-2.28.73 14 14 0 0 1-2.84.31 8.16 8.16 0 0 1-5.5-1.65 5.7 5.7 0 0 1-1.88-4.49 5.89 5.89 0 0 1 1.98-4.58zM270.62 109.23V97H272v11h6.98v1.23zM281.09 109.23V97h1.37v12.23zM284.66 109.23l6.07-12.29h.98l6.26 12.29h-1.54l-1.95-3.9h-6.4l-1.9 3.9zm4-5.1h5.2l-2.63-5.23h-.04zM304.57 109.23V97H313v1.23h-7.05v4.15h6.36v1.2h-6.36V108h7.16v1.23zM315.78 109.23V97h4.38a11.2 11.2 0 0 1 3.73.52 5.34 5.34 0 0 1 3.9 5.4c0 3.04-1.7 5.08-4.73 5.9a13.13 13.13 0 0 1-3.55.4zm1.37-1.23h2.3a12.16 12.16 0 0 0 3.23-.35 4.53 4.53 0 0 0 3.66-4.75 4.08 4.08 0 0 0-2.92-4.2 10.06 10.06 0 0 0-3.45-.48h-2.82zM330.63 97H332v6.7a6.51 6.51 0 0 0 .28 2.15c.57 1.54 2.02 2.32 4.3 2.32 2.25 0 3.66-.74 4.25-2.22a6.13 6.13 0 0 0 .32-2.16V97h1.39v6.88a7.24 7.24 0 0 1-.4 2.5c-.77 2.03-2.62 3.03-5.56 3.03-3.02 0-4.91-1.06-5.64-3.16a7.8 7.8 0 0 1-.31-2.28zM347.31 98.7a7.14 7.14 0 0 1 5.1-1.8 11.1 11.1 0 0 1 4.4.9l-.42 1.17a9.34 9.34 0 0 0-3.86-.84 5.94 5.94 0 0 0-4.16 1.41 4.67 4.67 0 0 0-1.54 3.62c0 3.13 2.04 5.03 5.68 5.03a10.22 10.22 0 0 0 3.88-.8l.46 1.17a11.7 11.7 0 0 1-4.47.85 7.5 7.5 0 0 1-5.18-1.65 5.83 5.83 0 0 1-1.82-4.5 5.96 5.96 0 0 1 1.93-4.55zM358.44 109.23l6.07-12.29h.98l6.25 12.29h-1.54l-1.95-3.9h-6.4l-1.9 3.9zm3.99-5.1h5.21l-2.63-5.23h-.04zM370.7 98.22V97h10.93v1.23h-4.79v11h-1.37v-11zM383.78 109.23V97h1.38v12.23zM390.06 98.65a7.75 7.75 0 0 1 9.8 0 5.93 5.93 0 0 1 1.87 4.53 5.86 5.86 0 0 1-1.87 4.54 7.95 7.95 0 0 1-9.8 0 5.86 5.86 0 0 1-1.87-4.54 5.93 5.93 0 0 1 1.87-4.53zm8.78 8.15a4.8 4.8 0 0 0 1.44-3.62 4.87 4.87 0 0 0-1.44-3.64 5.25 5.25 0 0 0-3.88-1.4 5.32 5.32 0 0 0-3.9 1.4 4.92 4.92 0 0 0-1.43 3.64 4.85 4.85 0 0 0 1.43 3.62 6.12 6.12 0 0 0 7.77 0zM404.77 109.23V97h1.1l9.68 9.83h.04V97h1.37v12.23h-.95l-9.83-9.98h-.04v9.98zM424.9 107a6.49 6.49 0 0 0 4.03 1.19c2.22 0 3.8-.84 3.8-2.45 0-.97-.75-1.54-1.91-1.76a17.73 17.73 0 0 0-1.79-.3 7.75 7.75 0 0 1-3.4-1.15 2.63 2.63 0 0 1-.97-2.2c0-2.16 1.85-3.43 4.69-3.43a8.48 8.48 0 0 1 4.47 1.17l-.57 1.06a7.19 7.19 0 0 0-3.8-1c-2.25 0-3.34.93-3.34 2.13 0 3.57 8.07.65 8.07 5.46a3.08 3.08 0 0 1-1.5 2.74 6.9 6.9 0 0 1-3.75.95 7.45 7.45 0 0 1-4.71-1.35zM438.38 98.7a7.14 7.14 0 0 1 5.1-1.8 11.1 11.1 0 0 1 4.4.9l-.43 1.17a9.33 9.33 0 0 0-3.86-.84 5.94 5.94 0 0 0-4.16 1.41 4.67 4.67 0 0 0-1.54 3.62c0 3.13 2.04 5.03 5.68 5.03a10.22 10.22 0 0 0 3.88-.8l.46 1.17a11.7 11.7 0 0 1-4.47.85 7.5 7.5 0 0 1-5.18-1.65 5.83 5.83 0 0 1-1.81-4.5 5.96 5.96 0 0 1 1.93-4.55zM450.37 109.23V97h1.37v5.4h8.19V97h1.37v12.23h-1.37v-5.6h-8.19v5.6zM466.2 98.65a7.75 7.75 0 0 1 9.8 0 5.93 5.93 0 0 1 1.87 4.53 5.86 5.86 0 0 1-1.87 4.54 7.95 7.95 0 0 1-9.8 0 5.86 5.86 0 0 1-1.87-4.54 5.93 5.93 0 0 1 1.87-4.53zm8.78 8.15a4.8 4.8 0 0 0 1.44-3.62 4.87 4.87 0 0 0-1.44-3.64 5.24 5.24 0 0 0-3.88-1.4 5.32 5.32 0 0 0-3.9 1.4 4.92 4.92 0 0 0-1.43 3.64 4.85 4.85 0 0 0 1.43 3.62 6.12 6.12 0 0 0 7.77 0zM482.08 98.65a7.75 7.75 0 0 1 9.8 0 5.93 5.93 0 0 1 1.87 4.53 5.86 5.86 0 0 1-1.87 4.54 7.95 7.95 0 0 1-9.8 0 5.86 5.86 0 0 1-1.87-4.54 5.93 5.93 0 0 1 1.87-4.53zm8.78 8.15a4.8 4.8 0 0 0 1.44-3.62 4.87 4.87 0 0 0-1.45-3.64 5.24 5.24 0 0 0-3.87-1.4 5.32 5.32 0 0 0-3.9 1.4 4.92 4.92 0 0 0-1.43 3.64 4.85 4.85 0 0 0 1.43 3.62 6.12 6.12 0 0 0 7.77 0zM496.79 109.23V97h1.37v11h6.97v1.23zM142.21 75.61V50.63h7.39a20.53 20.53 0 0 1 4.89.46c4.17 1.1 6.25 3.64 6.25 7.54a7.11 7.11 0 0 1-2.04 5.34 9.63 9.63 0 0 1-5 2.58 22.77 22.77 0 0 1-4.59.38h-2.88v8.68zm4.02-12.28h3.03a16.7 16.7 0 0 0 3.6-.26c2.46-.57 3.68-2.01 3.68-4.33a4.01 4.01 0 0 0-3.15-4.16 16.42 16.42 0 0 0-4.1-.35h-3.06zM165.17 75.61V50.63h7.47a19.99 19.99 0 0 1 5.04.5c3.53.94 5.88 3.18 5.88 6.93 0 4.1-2.77 6.4-7.17 7.13v.07a8.12 8.12 0 0 1 2.24 2.77 12.89 12.89 0 0 0 2.42 3.1 4.26 4.26 0 0 0 2.66 1 6.87 6.87 0 0 0 1.74-.23l.84 3.4a8.05 8.05 0 0 1-3.15.5 7.11 7.11 0 0 1-4.59-1.67 11.69 11.69 0 0 1-2.23-2.42 36.18 36.18 0 0 1-1.78-2.73c-.91-1.63-2.13-3.03-3.3-3.03h-2.05v9.66zm4.02-13.26h3.03a14.56 14.56 0 0 0 3.94-.38c2.13-.65 3.19-1.9 3.19-3.83a3.58 3.58 0 0 0-2.84-3.56 15.02 15.02 0 0 0-3.8-.35h-3.52zM189.8 75.61V50.63h17.82v3.6h-13.8v6.9h12.51v3.6h-12.5v7.28h14.02v3.6zM213.22 75.61V50.63h7.4a20.52 20.52 0 0 1 4.88.46c4.17 1.1 6.26 3.64 6.26 7.54a7.11 7.11 0 0 1-2.05 5.34 9.62 9.62 0 0 1-5 2.58 22.77 22.77 0 0 1-4.59.38h-2.88v8.68zm4.02-12.28h3.03a16.72 16.72 0 0 0 3.6-.26c2.46-.57 3.68-2.01 3.68-4.33a4.01 4.01 0 0 0-3.15-4.16 16.4 16.4 0 0 0-4.1-.35h-3.06zM230.96 75.61l12.35-25.1h2.8l12.82 25.1h-4.43l-3.56-7.09h-12.17l-3.38 7.1zm9.51-10.69h8.64l-4.4-8.75h-.07zM262.5 75.61V50.63h7.47a19.98 19.98 0 0 1 5.04.5c3.53.94 5.88 3.18 5.88 6.93 0 4.1-2.77 6.4-7.17 7.13v.07a8.15 8.15 0 0 1 2.24 2.77 12.84 12.84 0 0 0 2.43 3.1 4.26 4.26 0 0 0 2.65 1 6.86 6.86 0 0 0 1.74-.23l.84 3.4a8.05 8.05 0 0 1-3.15.5 7.12 7.12 0 0 1-4.59-1.67 11.69 11.69 0 0 1-2.23-2.42 36.5 36.5 0 0 1-1.78-2.73c-.91-1.63-2.13-3.03-3.3-3.03h-2.05v9.66zm4.02-13.26h3.04a14.56 14.56 0 0 0 3.94-.38c2.12-.65 3.18-1.9 3.18-3.83a3.58 3.58 0 0 0-2.84-3.56 15.02 15.02 0 0 0-3.8-.35h-3.52zM285.62 75.61l12.35-25.1h2.8l12.81 25.1h-4.43l-3.56-7.09h-12.17l-3.37 7.1zm9.5-10.69h8.65l-4.4-8.75h-.07zM310.74 54.23v-3.6h22.59v3.6h-9.29v21.38h-4.02V54.23zM338.52 54a15.83 15.83 0 0 1 20.01 0 12.02 12.02 0 0 1 3.87 9.25 11.78 11.78 0 0 1-3.9 9.3 14.37 14.37 0 0 1-9.97 3.44 14.53 14.53 0 0 1-10-3.45 11.87 11.87 0 0 1-3.87-9.29 12.01 12.01 0 0 1 3.86-9.24zm.34 9.25a8.8 8.8 0 0 0 2.58 6.56 11.3 11.3 0 0 0 14.17 0 8.8 8.8 0 0 0 2.58-6.56 8.94 8.94 0 0 0-2.58-6.59 11.16 11.16 0 0 0-14.17 0 8.94 8.94 0 0 0-2.58 6.6zM367.62 75.61V50.63h7.47a19.98 19.98 0 0 1 5.04.5c3.52.94 5.88 3.18 5.88 6.93 0 4.1-2.77 6.4-7.17 7.13v.07a8.15 8.15 0 0 1 2.24 2.77 12.84 12.84 0 0 0 2.42 3.1 4.26 4.26 0 0 0 2.66 1 6.86 6.86 0 0 0 1.74-.23l.83 3.41a8.05 8.05 0 0 1-3.14.5 7.12 7.12 0 0 1-4.59-1.68 11.66 11.66 0 0 1-2.24-2.42 36.22 36.22 0 0 1-1.78-2.73c-.9-1.63-2.12-3.03-3.3-3.03h-2.04v9.66zm4.02-13.26h3.03a14.56 14.56 0 0 0 3.94-.38c2.13-.65 3.19-1.9 3.19-3.83a3.58 3.58 0 0 0-2.85-3.56 15.02 15.02 0 0 0-3.79-.35h-3.52zM387.65 50.63h4.66l8.38 11.87h.08l8-11.86h4.58l-10.69 15.5v9.47h-4.01v-9.47zM426.04 70.08a15.49 15.49 0 0 0 8.15 2.23c4.25 0 6.86-1.4 6.86-3.98 0-1.66-1.44-2.57-3.6-3-1.1-.18-2.23-.37-3.4-.48-2.32-.3-5.16-.95-6.8-2.13a5.72 5.72 0 0 1-2.27-4.92 6.24 6.24 0 0 1 2.66-5.46 12.16 12.16 0 0 1 7.08-1.9 19.36 19.36 0 0 1 9.82 2.46l-1.55 3.19a17.54 17.54 0 0 0-8-1.97c-4.06 0-5.8 1.47-5.8 3.44 0 3.11 4.01 3.23 8.03 3.87q2.1.4 3.87.91a5.68 5.68 0 0 1 4.17 5.8 6.46 6.46 0 0 1-3.22 5.88 14.58 14.58 0 0 1-7.89 1.97 17.73 17.73 0 0 1-9.93-2.7zM452.83 54.12A14.18 14.18 0 0 1 463 50.44a22.82 22.82 0 0 1 9.55 2.01l-1.21 3.41a19.22 19.22 0 0 0-7.96-1.74 10.61 10.61 0 0 0-7.43 2.58 8.52 8.52 0 0 0-2.8 6.52c0 5.6 3.75 9.1 10.31 9.1a20.46 20.46 0 0 0 7.88-1.67l1.33 3.41a23.81 23.81 0 0 1-9.47 1.93c-4.51 0-8-1.13-10.5-3.37a11.8 11.8 0 0 1-3.76-9.17 12.14 12.14 0 0 1 3.9-9.33zM476.93 75.61V50.63h4.01v10.5h15.01v-10.5h4.02v24.98h-4.02V64.73h-15v10.88zM509.04 54a15.83 15.83 0 0 1 20.02 0 12.02 12.02 0 0 1 3.86 9.25 11.78 11.78 0 0 1-3.9 9.3 14.38 14.38 0 0 1-9.97 3.44 14.54 14.54 0 0 1-10-3.45 11.88 11.88 0 0 1-3.87-9.29 12.01 12.01 0 0 1 3.86-9.24zm.34 9.25a8.8 8.8 0 0 0 2.58 6.56 11.3 11.3 0 0 0 14.18 0 8.8 8.8 0 0 0 2.57-6.56 8.94 8.94 0 0 0-2.57-6.59 11.16 11.16 0 0 0-14.18 0 8.94 8.94 0 0 0-2.58 6.6zM540.62 54a15.83 15.83 0 0 1 20 0 12.02 12.02 0 0 1 3.87 9.25 11.78 11.78 0 0 1-3.9 9.3 14.38 14.38 0 0 1-9.96 3.44 14.54 14.54 0 0 1-10.01-3.45 11.88 11.88 0 0 1-3.87-9.29 12.01 12.01 0 0 1 3.87-9.24zm.34 9.25a8.8 8.8 0 0 0 2.57 6.56 11.3 11.3 0 0 0 14.18 0 8.8 8.8 0 0 0 2.58-6.56 8.94 8.94 0 0 0-2.58-6.59 11.16 11.16 0 0 0-14.18 0 8.94 8.94 0 0 0-2.57 6.6zM569.72 75.61V50.63h4.02v21.38h13.57v3.6zM142.21 39.35V14.37h3.15l18 18.08h.07V14.37h4.02v24.98h-2.88L146.3 21h-.08v18.35zM176.54 17.74a15.83 15.83 0 0 1 20.02 0 12.02 12.02 0 0 1 3.86 9.25 11.78 11.78 0 0 1-3.9 9.29 14.38 14.38 0 0 1-9.97 3.45 14.54 14.54 0 0 1-10-3.45 11.88 11.88 0 0 1-3.87-9.29 12.02 12.02 0 0 1 3.86-9.25zm.34 9.25a8.8 8.8 0 0 0 2.58 6.56 11.3 11.3 0 0 0 14.18 0 8.79 8.79 0 0 0 2.58-6.56 8.94 8.94 0 0 0-2.58-6.6 11.16 11.16 0 0 0-14.18 0 8.94 8.94 0 0 0-2.58 6.6zM205.65 39.35V14.37h7.46a19.98 19.98 0 0 1 5.04.5c3.53.94 5.88 3.18 5.88 6.93 0 4.1-2.77 6.4-7.17 7.12V29a8.13 8.13 0 0 1 2.24 2.77 12.9 12.9 0 0 0 2.43 3.1 4.26 4.26 0 0 0 2.65 1 6.87 6.87 0 0 0 1.74-.24l.84 3.41a8.03 8.03 0 0 1-3.15.5 7.12 7.12 0 0 1-4.59-1.67 11.72 11.72 0 0 1-2.23-2.43 35.87 35.87 0 0 1-1.78-2.73c-.91-1.63-2.13-3.03-3.3-3.03h-2.05v9.67zm4.01-13.27h3.04a14.56 14.56 0 0 0 3.94-.38c2.13-.64 3.19-1.9 3.19-3.83a3.58 3.58 0 0 0-2.85-3.56 15.02 15.02 0 0 0-3.79-.34h-3.52zM226.92 17.97v-3.6h22.59v3.6h-9.29v21.38h-4.02V17.97zM253.03 39.35V14.37h4.02v10.5h15v-10.5h4.02v24.98h-4.01V28.47h-15.01v10.88zM291.91 39.35V14.37h8.8a17.48 17.48 0 0 1 4.36.5c3.52.9 5.3 3 5.3 6.2a5.37 5.37 0 0 1-2.88 5v.08a6.1 6.1 0 0 1 1.7.61 5.5 5.5 0 0 1 3 5.08c0 3.3-1.59 5.5-4.77 6.67a16.44 16.44 0 0 1-5.73.83zm4.02-14.48h4.81a9.56 9.56 0 0 0 3.3-.46 3.1 3.1 0 0 0 2.13-3.07 2.94 2.94 0 0 0-2.43-3.07 13.1 13.1 0 0 0-3.03-.3h-4.78zm0 10.88h5.46a12.49 12.49 0 0 0 4.2-.57 3.3 3.3 0 0 0 2.4-3.3 2.96 2.96 0 0 0-2.24-3 11.95 11.95 0 0 0-3.41-.41h-6.4zM317.4 39.35V14.37h7.47a19.98 19.98 0 0 1 5.04.5c3.52.94 5.87 3.18 5.87 6.93 0 4.1-2.76 6.4-7.16 7.12V29a8.14 8.14 0 0 1 2.24 2.77 12.87 12.87 0 0 0 2.42 3.1 4.26 4.26 0 0 0 2.66 1 6.87 6.87 0 0 0 1.74-.24l.83 3.41a8.03 8.03 0 0 1-3.14.5 7.12 7.12 0 0 1-4.59-1.67 11.75 11.75 0 0 1-2.24-2.43 36.18 36.18 0 0 1-1.78-2.73c-.9-1.63-2.12-3.03-3.3-3.03h-2.04v9.67zm4.02-13.27h3.03a14.56 14.56 0 0 0 3.94-.38c2.12-.64 3.19-1.9 3.19-3.83a3.58 3.58 0 0 0-2.85-3.56 15 15 0 0 0-3.79-.34h-3.52zM343.8 17.74a15.83 15.83 0 0 1 20.01 0 12.01 12.01 0 0 1 3.87 9.25 11.78 11.78 0 0 1-3.9 9.29 14.38 14.38 0 0 1-9.97 3.45 14.54 14.54 0 0 1-10-3.45 11.88 11.88 0 0 1-3.87-9.29 12.01 12.01 0 0 1 3.86-9.25zm.34 9.25a8.8 8.8 0 0 0 2.58 6.56 11.3 11.3 0 0 0 14.17 0 8.79 8.79 0 0 0 2.58-6.56 8.94 8.94 0 0 0-2.57-6.59 11.16 11.16 0 0 0-14.18 0 8.94 8.94 0 0 0-2.58 6.59zM368.68 14.37h4.47l7.58 18.6h.08l7.35-18.6h3.49l7.96 18.6h.08l6.97-18.6h4.4l-9.82 25.09h-3.07l-8.26-19.14h-.08l-7.65 19.14h-3.08zM409.14 39.35l12.36-25.1h2.8l12.81 25.1h-4.43l-3.56-7.1h-12.17l-3.37 7.1zm9.52-10.7h8.64l-4.4-8.75h-.08zM440.69 39.35V14.37h7.47a19.98 19.98 0 0 1 5.04.5c3.52.94 5.87 3.18 5.87 6.93 0 4.1-2.76 6.4-7.16 7.12V29a8.13 8.13 0 0 1 2.24 2.77 12.9 12.9 0 0 0 2.42 3.1 4.26 4.26 0 0 0 2.65 1 6.87 6.87 0 0 0 1.75-.24l.83 3.41a8.03 8.03 0 0 1-3.14.5 7.12 7.12 0 0 1-4.59-1.67 11.72 11.72 0 0 1-2.24-2.43 36.18 36.18 0 0 1-1.78-2.73c-.9-1.63-2.12-3.03-3.3-3.03h-2.04v9.67zm4.02-13.27h3.03a14.57 14.57 0 0 0 3.94-.38c2.12-.64 3.19-1.9 3.19-3.83a3.58 3.58 0 0 0-2.85-3.56 15 15 0 0 0-3.79-.34h-3.52zM465.32 39.35V14.37h9.37a26.14 26.14 0 0 1 6.1.6c6.02 1.48 9.62 5.39 9.62 11.49 0 6.22-3.75 10.38-9.96 12.1a27.15 27.15 0 0 1-7.13.8zm4.02-3.6h3.9a22.87 22.87 0 0 0 6.26-.72c4.47-1.3 6.7-4.13 6.7-8.57q0-6.31-6.48-7.96a23.25 23.25 0 0 0-5.53-.53h-4.85z"/></g></g></svg>