<?xml version="1.0" encoding="UTF-8"?>
<svg width="24px" height="20px" viewBox="0 0 24 20" version="1.1" xmlns="http://www.w3.org/2000/svg" xmlns:xlink="http://www.w3.org/1999/xlink">
    <!-- Generator: sketchtool 54.1 (76490) - https://sketchapp.com -->
    <title>43F1C1FE-04E0-4F2D-9B7C-34D8A03BA592</title>
    <desc>Created with sketchtool.</desc>
    <defs>
        <path d="M17.8113787,3.33333333 L14.375,3.33333333 C13.8457271,3.33333333 13.4166667,2.96023729 13.4166667,2.5 C13.4166667,2.03976271 13.8457271,1.66666667 14.375,1.66666667 L20.125,1.66666667 C20.6542729,1.66666667 21.0833333,2.03976271 21.0833333,2.5 L21.0833333,7.5 C21.0833333,7.96023729 20.6542729,8.33333333 20.125,8.33333333 C19.5957271,8.33333333 19.1666667,7.96023729 19.1666667,7.5 L19.1666667,4.51184464 L10.2609773,12.2559223 C9.88672489,12.5813592 9.27994178,12.5813592 8.90568933,12.2559223 C8.53143689,11.9304854 8.53143689,11.4028479 8.90568933,11.077411 L17.8113787,3.33333333 Z M16.2916667,10.8333333 C16.2916667,10.373096 16.7207271,10 17.25,10 C17.7792729,10 18.2083333,10.373096 18.2083333,10.8333333 L18.2083333,15.8333333 C18.2083333,17.2140452 16.921152,18.3333333 15.3333333,18.3333333 L4.79166667,18.3333333 C3.20384801,18.3333333 1.91666667,17.2140452 1.91666667,15.8333333 L1.91666667,6.66666667 C1.91666667,5.28595479 3.20384801,4.16666667 4.79166667,4.16666667 L10.5416667,4.16666667 C11.0709396,4.16666667 11.5,4.53976271 11.5,5 C11.5,5.46023729 11.0709396,5.83333333 10.5416667,5.83333333 L4.79166667,5.83333333 C4.26239378,5.83333333 3.83333333,6.20642938 3.83333333,6.66666667 L3.83333333,15.8333333 C3.83333333,16.2935706 4.26239378,16.6666667 4.79166667,16.6666667 L15.3333333,16.6666667 C15.8626062,16.6666667 16.2916667,16.2935706 16.2916667,15.8333333 L16.2916667,10.8333333 Z" id="path-1"></path>
    </defs>
    <g id="Symbols" stroke="none" stroke-width="1" fill="none" fill-rule="evenodd">
        <g id="visit-website-icon">
            <g id="external-link" transform="translate(0.000000, 0.000000)">
                <mask id="mask-2" fill="white">
                    <use xlink:href="#path-1"></use>
                </mask>
                <use id="Combined-Shape" fill="#000000" fill-rule="nonzero" xlink:href="#path-1"></use>
                <g id="COLOR/-black" mask="url(#mask-2)" fill="#000000" fill-rule="evenodd">
                    <rect id="Rectangle" x="0" y="0" width="23" height="20"></rect>
                </g>
            </g>
        </g>
    </g>
</svg>